<?xml version="1.0" encoding="utf-8"?>
<!-- Generator: Adobe Illustrator 23.1.0, SVG Export Plug-In . SVG Version: 6.00 Build 0)  -->
<svg version="1.1" xmlns="http://www.w3.org/2000/svg" xmlns:xlink="http://www.w3.org/1999/xlink" x="0px" y="0px"
	 viewBox="0 0 507.27 720" style="enable-background:new 0 0 507.27 720;" xml:space="preserve">
<style type="text/css">
	.st0{fill:#D17F47;}
	.st1{fill:#FFD2A6;}
	.st2{fill:#82583A;}
	.st3{fill:#201600;}
	.st4{fill:#ADB03D;}
</style>
<g id="_x35_">
	<g>
		<path class="st0" d="M38.52,296.57c0.04-0.27,0.09-0.55,0.14-0.81c-2.88-2.39-5.59-6.05-5.34-9.96c0.17-2.62,1.97-6.02,4.8-7.5
			c-3.04-2.37-6.08-6.23-5.82-10.36c0.2-3.16,2.79-7.46,6.68-8.15c-1.66-2.1-2.83-4.61-2.66-7.24c0.22-3.44,3.27-8.24,7.74-8.24
			c0.74,0,1.46,0.14,2.16,0.41c0.11,0.04,0.21,0.09,0.32,0.13c0.88-7.68,1.6-15.7,2.01-24.14c-17.53,2.66-32.57,12.64-33.19,31.79
			C14.95,265.24,22.96,294.36,38.52,296.57z"/>
		<path class="st0" d="M14.76,418.45c0.86-2.76,3.68-5.71,6.97-6.26c-0.04-0.05-0.09-0.1-0.13-0.14c-2.72-2.98-5.41-8.02-4.04-12.42
			c0.87-2.79,3.75-5.79,7.1-6.28c-1.8-2.86-3.01-6.47-2-9.73c0.95-3.05,4.3-6.35,8.04-6.35c1.24,0,2.43,0.37,3.44,1.08
			c0.63,0.44,1.24,0.89,1.86,1.34c-0.46-10.87-0.84-21.25-1.05-30.8c-15.48,4.15-26.73,11.22-31.81,28.01
			c-4.1,13.53-5.7,30.31,4.79,41.45c2.04,2.17,4.38,4.01,6.88,5.44C14.33,422.02,14.22,420.19,14.76,418.45z"/>
	</g>
	<g>
		<path class="st0" d="M454.11,159.73c-0.83,0.35-1.71,0.52-2.62,0.52c-3.08,0-6.28-2.17-7.59-5.16c-0.88-2.01-0.87-4.13-0.12-6.07
			c-1.33,0.74-2.84,1.26-4.65,1.26c-0.3,0-0.62-0.01-0.93-0.04c-4.51-0.43-7.81-4.17-7.51-8.5c0.01-0.09,0.03-0.16,0.04-0.25
			c-1.48,2.08-3.74,3.31-6.39,3.31c-3.18,0-6.41-1.77-8.04-4.39c-0.39-0.63-0.66-1.29-0.85-1.97c-9.2,10.36-15.82,25.57-17.65,36.28
			c-0.08,0.45-0.12,0.97,0.2,1.29c0.37,0.36,0.97,0.23,1.49,0.2c4.25-0.28,3.27,5.18,2.75,7.63c-1.34,6.29-6.15,12.46-8.16,18.71
			c-0.57,1.77-0.57,4.47,1.28,4.66c6.08,16.91-12.53,42.03-22.43,54.39c-7.04,8.78-12.38,18.86-25.17,19.47
			c-2.48,0.12-4.96-0.15-7.43-0.47c-6.07-0.77-12.67-1.87-16.82-6.65c-2.78-3.2-8.72-9.73-5.24-14.15
			c12.83-16.26,19.39-35.98,17.03-56.39c-2.75-23.74-17.05-43.82-37.82-56.93c3.29,1.15,6.6,2.23,9.96,3.14
			c2.16,0.59,3.32-2.36,1.49-3.54c-10.08-6.53-22.12-11.2-33.64-14.52c-5.8-1.67-11.73-2.9-17.72-3.66
			c-1.75-0.22-3.63-0.48-5.56-0.69c4.56-0.8,9.16-1.22,13.75-1.06c2.43,0.09,2.84-3.52,0.56-4.17c-8.58-2.45-17.02-1.54-25.57,0.69
			c-3.63,0.94-7.24,2.02-10.84,3.16c2.87-2.89,5.66-5.85,8.28-9.01c1.82-2.19-1.01-5.15-3.17-3.17
			c-6.28,5.78-12.85,11.34-19.69,16.5c-0.82-0.11-1.65-0.21-2.46-0.29c-11.84-1.05-23.85,0.63-35.37,3.23
			c-2.69,0.61-2.17,5.2,0.66,4.9c4.9-0.5,9.87-0.78,14.83-0.85c-0.52,0.17-1.05,0.32-1.57,0.49c-19.95,6.51-38.54,16.35-54.47,30.06
			c-2.04,1.76,0.63,5.22,2.88,3.74c6.48-4.25,13.18-8.22,20.04-11.87c-19.36,17.89-30.1,42.07-27.18,67.32
			c1.89,16.32,9.54,31.42,20.88,43.21c5.84,6.07,12.58,11.25,19.86,15.49c5.36,3.13,18.92,6.52,12.92,15.3
			c-4.42,6.48-13.33,6.48-20.3,6.06c-21.28-1.29-42.66-20.56-55.96-35.18c-0.1,2.02-0.16,4.07-0.28,6.06
			c-2,34.47-0.61,52.26,0.47,65.2c3.64,5.95,7.73,11.54,12.71,16.7c0.63-1.17,1.25-2.34,1.88-3.51c3.26,6.18,7.74,11.71,13.12,16.17
			c1.13,0.94,2.44,1.88,3.91,1.79c1.47-0.09,2.82-1.8,2.02-3.04c3.15,3.95,6.29,7.9,9.44,11.85c0.47,0.59,0.96,1.19,1.64,1.5
			c1.37,0.62,3.05-0.23,3.86-1.5c0.81-1.27,0.97-2.83,1.11-4.33c0.04,1.97,2.13,3.39,4.1,3.39c1.97,0,3.77-1.02,5.43-2.08
			c3.25-2.08,18.63-16.64,15.64-3.22c-4.92,22.06-26.72,34.88-28.96,58.05c-0.6,6.24-0.27,12.52,0.2,18.78
			c-0.42-2.54-1.24-5.05-1.91-7.55c-2.66-9.94-2.55-20.61,0.32-30.5c0.54-1.93-8.07-11.73-9.44-13.65
			c-3.13-4.38-6.39-8.68-9.92-12.75c-6.71-7.74-14.44-14.69-23.46-19.6c1.31,14.41,4.09,31.79,7,49.98
			c1.52,9.52,3.1,19.36,4.55,29.29c0.55,3.77,1.13,7.53,1.7,11.29c1.6,3.88,3.53,7.65,5.96,11.27c0.54,0.8,1.09,1.64,1.21,2.6
			c0.67,5.52-8.6,6.09-12.04,5.82c-0.76-0.06-1.53-0.17-2.29-0.28c-0.58-0.09-1.13-0.16-1.66-0.23c-0.05-0.01-0.11-0.01-0.16-0.02
			c-0.5-0.06-0.98-0.08-1.47-0.09c-0.13,0-0.25,0-0.38,0c-0.29,0-0.56,0.03-0.82,0.05c-0.12,0.01-0.23,0.02-0.35,0.03
			c-0.31,0.05-0.6,0.11-0.89,0.19c-0.06,0.02-0.12,0.02-0.18,0.04c-0.45,0.14-0.88,0.32-1.31,0.53c-0.12,0.06-0.24,0.13-0.36,0.19
			c-0.58,0.3-1.16,0.62-1.75,0.92c-0.13,0.07-0.26,0.14-0.39,0.2c-0.45,0.21-0.9,0.39-1.38,0.52c-0.53,0.14-1.06,0.18-1.6,0.2
			c-0.06,0-0.1,0.02-0.16,0.02c-0.09,0-0.18-0.03-0.27-0.03c-0.57-0.02-1.15-0.07-1.73-0.18c-0.03-0.01-0.07-0.01-0.1-0.01
			c-0.71-0.13-1.43-0.31-2.15-0.49c-0.63-0.15-1.27-0.31-1.91-0.43c-0.08-0.01-0.16-0.02-0.24-0.04c-0.57-0.1-1.13-0.16-1.7-0.17
			c-0.22-0.01-0.44-0.03-0.66-0.02l-0.04,0c-0.06,0-0.11,0.01-0.17,0.02c-0.44,0.03-0.9,0.1-1.35,0.19
			c-0.11,0.02-0.21,0.04-0.32,0.06c-0.49,0.11-0.98,0.23-1.47,0.36c-0.57,0.15-1.15,0.3-1.72,0.42c-0.06,0.01-0.12,0.02-0.18,0.03
			c-0.56,0.11-1.13,0.18-1.7,0.19c-0.01,0-0.03,0-0.04,0c-0.26,0-0.53-0.02-0.79-0.05c-0.02,0-0.04,0-0.05,0
			c-0.03,0-0.05-0.01-0.07-0.02c-0.39-0.06-0.77-0.15-1.14-0.28c-0.15-0.05-0.29-0.12-0.44-0.17c-0.25-0.1-0.5-0.19-0.75-0.31
			c-0.17-0.08-0.34-0.17-0.51-0.26c-0.22-0.12-0.44-0.23-0.66-0.35c-0.31-0.17-0.61-0.34-0.91-0.52c-0.18-0.1-0.36-0.2-0.54-0.3
			c-0.26-0.15-0.53-0.29-0.79-0.42c-0.16-0.08-0.32-0.16-0.47-0.23c-0.24-0.11-0.48-0.21-0.72-0.3c-0.17-0.07-0.35-0.12-0.52-0.17
			c-0.22-0.07-0.45-0.12-0.68-0.16c-0.2-0.04-0.4-0.06-0.6-0.07c-0.33-0.02-0.66-0.04-1,0.01c0,0,0,0,0,0
			c-0.41,0.06-0.8,0.18-1.19,0.32c-0.05,0.02-0.11,0.04-0.16,0.06c-0.38,0.15-0.76,0.31-1.13,0.48c-0.03,0.01-0.06,0.02-0.08,0.04
			c-0.15,0.07-0.3,0.13-0.45,0.2c-0.11,0.05-0.23,0.1-0.34,0.14c-0.15,0.06-0.29,0.12-0.44,0.17c-0.09,0.03-0.18,0.06-0.27,0.09
			c-0.16,0.05-0.32,0.09-0.48,0.13c-0.09,0.02-0.18,0.03-0.27,0.05c-0.15,0.02-0.31,0.04-0.46,0.05c-0.06,0-0.12,0.02-0.18,0.02
			h-0.18l-0.18-0.02c0,0,0,0,0,0c0,0,0,0,0,0c-0.05-0.01-0.09-0.02-0.13-0.03c-0.63-0.1-1.19-0.36-1.76-0.74
			c-0.12-0.08-0.24-0.15-0.35-0.23c-0.14-0.1-0.29-0.22-0.44-0.34c-0.09-0.07-0.19-0.14-0.28-0.22c-0.05-0.04-0.09-0.07-0.14-0.11
			c-0.38-0.31-0.78-0.62-1.18-0.89c-0.03-0.02-0.06-0.04-0.1-0.06c-0.41-0.26-0.83-0.5-1.3-0.64c-0.4-0.12-0.85-0.17-1.35-0.18
			c-0.06,0-0.12-0.01-0.18-0.01c-0.59,0.01-1.2,0.08-1.8,0.16c0,0-0.01,0-0.01,0c-0.61,0.08-1.23,0.16-1.83,0.16
			c-0.01,0-0.02,0-0.02,0c-0.01,0-0.02-0.01-0.04-0.01c-0.49,0-0.97-0.06-1.44-0.21c-0.02-0.01-0.06,0-0.08-0.01
			c-0.01,0-0.02-0.01-0.03-0.02c0,0,0,0-0.01,0c-0.02-0.01-0.05-0.03-0.07-0.03c-0.29-0.11-0.56-0.25-0.82-0.41
			c-0.17-0.1-0.34-0.21-0.51-0.32c-0.07-0.05-0.13-0.08-0.21-0.13c-0.21-0.14-0.43-0.27-0.65-0.4c-0.13-0.08-0.26-0.16-0.39-0.23
			c-0.34-0.17-0.69-0.32-1.07-0.38c-0.34-0.06-0.68-0.03-1.02,0.01c-0.08,0.01-0.17,0.01-0.25,0.03c-0.33,0.05-0.67,0.13-1,0.21
			l-0.59,0.14l-1.18,0.44l-0.96-0.55c-0.13-0.06-0.24-0.15-0.36-0.21c-0.22-0.13-0.45-0.25-0.66-0.39
			c-0.02-0.01-0.04-0.02-0.06-0.04l-0.47-0.33c-0.93-0.63-4.55-1.1-6.58-1.78c-0.58-0.07-1.14-0.14-1.67-0.2l-2.76-0.32l-0.04-2.77
			c-0.11-7.55-0.31-15.07-0.53-22.57c-5.8,2.52-30.54,15.11-29.83,46.18c0.25,11.09,3.78,21.95,10.31,32
			c-0.68,0.31-1.19,1.13-0.92,1.9c0.67,1.91,1.23,3.81,2.44,5.46c1.24,1.7,2.62,3.29,4.19,4.69c1.55,1.38,3.31,2.56,5.14,3.52
			c0.42,0.22,0.89,0.47,1.37,0.71c0.52,2.04,1.98,3.95,3.46,5.36c1.58,1.52,3.38,2.88,5.25,4.02c1.9,1.15,3.94,2.08,6.04,2.81
			c0.58,0.2,1.18,0.33,1.78,0.47c0.24,1.64,1.35,3.29,2.46,4.37c2.41,2.33,5.58,3.23,8.74,3.99c3.42,0.83,6.87,1.43,10.33,2.04
			c1.73,0.3,3.44,0.7,5.16,1.06c0.44,0.09,0.87,0.19,1.3,0.28c0.26,0.09,0.52,0.19,0.79,0.28c-0.45,0.18-0.89,0.36-1.34,0.54
			c-0.37,0.15-0.77,0.32-0.98,0.67c-0.35,0.58,0.01,1.33,0.43,1.86c3.32,4.23,9.57,4.32,14.94,4.03c4.42-0.24,9.7,0.09,14.56,0.14
			c1.76,0.33,3.54,0.66,5.35,0.97c-0.02,0.45-0.12,0.97-0.12,1.4c0.02,1.33,1.41,2.16,2.63,2.66c12.27,5.02,24.28,4.28,36.75,0.21
			c0.54,0.03,1.09,0.05,1.64,0.07c-0.55,4.48,3.66,8.47,8.05,9.96c6.52,2.21,13.68,1.14,20.35-0.57
			c11.84-3.03,20.82-6.99,30.81-13.54c0.53-0.11,1.07-0.21,1.6-0.32c-0.25,1.59,0.42,3.32,1.8,4.18c1.01,0.63,2.23,0.78,3.42,0.85
			c7.27,0.41,14.49-2.08,20.68-5.92c5.39-3.35,9.93-6.72,14.29-11.05c0.14,0.11,0.25,0.25,0.4,0.35c1.3,0.88,2.9,1.26,4.47,1.33
			c6.25,0.28,11.74-3.94,16.22-8.3c6.25-6.07,10.6-12.67,13.89-20.44c0.97-1.04,1.96-2.07,2.93-3.19c2.05,1.12,4.69,1.16,6.96,0.41
			c5.27-1.73,8.67-6.76,11.27-11.66c6.66-12.6,8.97-25.55,9.61-39.61c0.36-1.1,0.71-2.21,1.05-3.32c1.78,0.23,3.64-1.22,4.75-2.79
			c2.66-3.75,3.64-8.41,4.38-12.95c2.53-15.39,3.31-30.08,1.95-45.62c0.47,2.09,3.75,2.22,5.16,0.61c1.41-1.61,1.46-3.97,1.39-6.11
			c-0.24-8.15-0.92-16.28-2.03-24.35c-0.89-6.48-4.09-14.35-3.79-20.64c9.29,2.61,18.64,6.46,28.19,8.16
			c1.86,0.89,3.72,1.79,5.52,2.78c2.48,1.36,4.97,2.85,7.11,4.7c2.05,1.76,3.04,4.15,5.01,5.98c1.07,0.99,2.65,1.67,3.98,1.09
			c1.72-0.75,2.05-3.02,1.97-4.89c0.13,2.98,3.68,5.98,5.29,8.26c2.46,3.5,4.25,7.48,6.66,11.04c0.57,0.85,1.54,1.8,2.46,1.34
			c0.4-0.2,0.64-0.63,0.83-1.03c3.1-6.48,0.63-13.36,1.93-20.01c1.34,0.55,2.79,0.38,3.86-0.66c1.04-1,1.51-2.43,1.92-3.82
			c1.91-6.48,3.08-13.18,3.47-19.93c0.56,1.86,0.49,3.88,1.18,5.7c0.69,1.81,2.65,3.43,4.47,2.74c1-0.38,1.64-1.34,2.17-2.27
			c8.03-13.96,6.49-30.9,8.67-46.27c0.66-4.66,1.37-9.32,2.17-13.96c0.22-1.25,0.26-3.73,1.28-4.55c1.6-1.28,3.67,1.06,5.13-1.72
			c0.59-1.12,0.69-2.42,0.79-3.69c0.82-11.07,1.37-22.27,2.37-33.37c0.63-6.89,1.43-13.75,2.6-20.51
			c2.82-16.36,4.92-32.44,8.22-48.65c1.77-8.69,7.54-21.67,9.78-33.65C456.21,158.76,455.19,159.29,454.11,159.73z"/>
	</g>
</g>
<g id="_x34_">
	<path class="st1" d="M457.42,79.56c-15.35,16.14-28.72,34.87-38.63,54.89c-2.72,5.49,6.55,10.16,9.65,4.89
		c5.5-9.36,10.45-19,16.18-28.24c5.72-9.23,11.29-18.53,16.93-27.82C463.09,80.73,459.72,77.13,457.42,79.56z"/>
	<path class="st1" d="M65.54,407.36c-0.38,0.09-0.83,0.17-1.34,0.25c-9.06,1.25-18.55-3.45-26.29-7.54
		c-3.2-1.69-6.44-3.49-8.88-6.17c-1.98-2.17-4.32-6.26-3.35-9.35c0.75-2.39,4.19-5.33,6.66-3.62c5.8,4.03,11.35,8.37,17.25,12.26
		c4.17,2.75,8.31,5.55,12.46,8.35C65.11,403.61,70.24,406.23,65.54,407.36z M56.95,417.56c-4.14-2.8-8.28-5.6-12.46-8.35
		c-5.9-3.89-11.45-8.23-17.25-12.26c-2.47-1.72-5.92,1.23-6.66,3.62c-0.96,3.09,1.37,7.18,3.35,9.35c2.44,2.68,5.68,4.47,8.88,6.17
		c7.74,4.09,17.24,8.78,26.29,7.54c0.52-0.07,0.96-0.15,1.34-0.25C65.15,422.24,60.01,419.62,56.95,417.56z M54.15,436.37
		c-4.14-2.8-8.28-5.6-12.46-8.35c-5.9-3.89-11.45-8.23-17.25-12.26c-2.47-1.72-5.92,1.23-6.66,3.62c-0.96,3.09,1.37,7.18,3.35,9.35
		c2.44,2.68,5.68,4.47,8.88,6.17c7.74,4.09,17.24,8.78,26.29,7.54c0.52-0.07,0.96-0.15,1.34-0.25
		C62.34,441.06,57.21,438.44,54.15,436.37z M78.81,260.66c-4.69-1.74-9.37-3.48-14.08-5.17c-6.65-2.39-13.08-5.29-19.66-7.83
		c-2.81-1.08-5.46,2.59-5.62,5.09c-0.21,3.23,3.03,6.65,5.47,8.29c3.01,2.02,6.57,3,10.09,3.89c8.49,2.15,18.82,4.46,27.33,1.11
		c0.49-0.19,0.9-0.38,1.25-0.56C87.88,263.27,82.27,261.94,78.81,260.66z M74.79,276.05c-4.69-1.74-9.37-3.48-14.08-5.17
		c-6.65-2.39-13.08-5.29-19.66-7.83c-2.81-1.08-5.46,2.59-5.62,5.09c-0.21,3.23,3.03,6.65,5.47,8.29c3.01,2.02,6.57,3,10.09,3.89
		c8.49,2.14,18.82,4.46,27.33,1.11c0.49-0.19,0.9-0.38,1.25-0.56C83.87,278.66,78.26,277.33,74.79,276.05z M75.82,293.9
		c-4.69-1.74-9.37-3.48-14.08-5.17c-6.65-2.39-13.08-5.29-19.66-7.83c-2.81-1.08-5.46,2.59-5.62,5.09
		c-0.21,3.23,3.03,6.65,5.47,8.29c3.01,2.02,6.57,3,10.09,3.89c8.49,2.15,18.82,4.46,27.33,1.11c0.49-0.19,0.9-0.38,1.25-0.56
		C84.89,296.52,79.28,295.19,75.82,293.9z"/>
	<path class="st1" d="M505.44,136.15c-4.72-1.65-9.05-3.04-14.12-3.08c-5.11-0.04-10.22,0.78-15.15,2.11
		c-4.78,1.3-9.4,3.16-13.92,5.2c-4.44,2-9.44,4.05-13.35,6.98c-2.06,1.54-3.23,3.93-2.12,6.46c0.93,2.12,3.69,4,6.11,3
		c4.28-1.78,8.2-4.44,12.33-6.56c3.93-2.03,7.95-3.83,12.14-5.27c4.19-1.44,8.59-2.6,12.98-3.19c4.31-0.58,9.41-1.32,13.73-0.69
		C507.3,141.57,508.63,137.27,505.44,136.15z"/>
	<path class="st1" d="M493.38,102.67c-1.79-1.29-6,1.07-8.56,2.08c-6.47,2.54-12.61,6.1-18.43,9.86
		c-5.85,3.78-11.51,7.86-17.06,12.08c-2.74,2.09-5.45,4.21-8.15,6.35c-3.1,2.46-7.04,4.6-7.34,8.91c-0.19,2.74,2.07,4.89,4.67,5.14
		c3.57,0.35,5.76-2.31,8.21-4.47c2.23-1.96,4.45-3.92,6.7-5.86c4.37-3.77,8.81-7.46,13.39-10.97c4.38-3.36,8.9-6.52,13.54-9.51
		c2.48-1.6,5.03-3.06,7.57-4.56c2.14-1.26,6.08-3.35,6.3-6.29C494.31,103.97,493.99,103.11,493.38,102.67z"/>
	<path class="st1" d="M296.49,225.29c-1.54,35.31-35.88,62.49-76.71,60.71c-40.83-1.78-72.69-31.84-71.15-67.14
		c0.45-10.32,3.82-20.33,9.48-28.94c2.81-4.27,6.2-8.81,10.39-11.78c9.37-6.63,20.72-4.35,31.85,5.7
		c7.54-11.49,13.63-20.38,28.9-23.7c12.39-2.69,29.61,4.83,39.32,12.39C287.97,187.61,297.49,202.49,296.49,225.29z"/>
</g>
<g id="_x33_">
	<path class="st2" d="M140.85,583.38c-3.74,0.72-7.36,1.13-10.89,1.13c-6.59,0-12.79-1.23-18.96-3.75
		c-2.91-1.19-4.06-2.86-4.43-4.33c-0.85-0.15-1.7-0.31-2.55-0.47c-1.51-0.02-3.05-0.06-4.6-0.11c-2.04-0.06-4.08-0.12-6.04-0.12
		c-1.19,0-2.35,0.02-3.45,0.08c-1.09,0.06-2.21,0.1-3.34,0.1c-4.32,0-10.49-0.55-14.25-5.34c-0.78-0.99-1.2-2.06-1.24-3.1
		c-0.73-0.15-1.45-0.3-2.18-0.43l-0.59-0.1c-3.25-0.58-6.61-1.17-9.94-1.98c-3.54-0.86-7.24-1.93-10.19-4.79
		c-1.21-1.17-2.17-2.59-2.77-4.03c-0.1-0.03-0.21-0.07-0.31-0.1c-1.92-0.66-3.71-1.51-5.41-2.44c-0.37,5.9-0.75,11.79-1.12,17.69
		c-0.86,13.75-1.72,27.5-2.1,41.27c-0.35,12.97-1.97,25.97-1.27,39c0.2,3.72,3.82,6.97,7.63,6.97c2.56,0,5.07-1.48,6.3-3.73
		c1.42-2.6,1.11-5.75,1.18-8.71c0.34-13.01,7.75-24.75,8.94-37.74c0.45-4.89,0.9-9.78,1.34-14.66c4.53,3.46,5.31,9.89,5.41,15.58
		c0.23,13.26-3.87,25.19-5.83,38.1c-1.54,10.15-0.03,20.42,1.86,30.42c1.23,6.54,0.01,15.22,7.64,18.16
		c2.93,1.13,6.38,0.7,9.14,2.17c4.35,2.31,4.96,7.9,5.94,12.58c0.98,4.68,4.46,10.15,9.33,9.18c4.6-0.92,5.78-6.61,5.98-11.13
		c0.48-11,0.96-22,1.44-33c0.13-2.99,0.43-6.33,2.77-8.3c3.23-2.72,8.41-1.19,11.76,1.4c3.35,2.59,6.02,6.13,9.97,7.76
		c0.87,0.36,1.8,0.61,2.74,0.58c2.38-0.09,4.3-2.02,5.25-4.12c2-4.42,0.78-9.48,0.17-14.27c-0.6-4.79-0.18-10.4,3.85-13.27
		c2.04-1.46,4.68-1.92,6.82-3.25c8.39-5.19,3.88-18.86,2.82-26.52C146.16,604.95,143.39,594.12,140.85,583.38z"/>
	<path class="st2" d="M284.46,202.82c-16.79-9.88-33.52-14.1-52.86-9.33c-12.1,2.99-21.19,14.05-16.71,26.69
		c1.25,3.53,3.82,6.57,7.09,8.39c8.88,4.95,18.03,2.75,27.12,0.05c7.35-2.18,14.95-4.13,22.59-3.47
		c9.43,0.82,17.94,6.28,21.93,14.96c0.03,0.07,0.08,0.15,0.11,0.22c1.57-4.79,2.53-9.83,2.76-15.04c0.2-4.71-0.06-9.06-0.75-13.16
		C292.72,208.25,288.58,205.24,284.46,202.82z"/>
	<path class="st2" d="M190.76,235.65c4.37-3.09,6.95-7.76,7.43-13.08c0.25-2.76,0.2-5.67-0.65-8.33c-0.36-1.12-0.84-2.21-1.45-3.22
		c-7.29-11.97-28.42-7.22-37.92-0.9c-3.84,2.55-7,5.96-9.55,9.84c-0.25,10.34,2.36,20.2,7.21,29.01c4.33-6.38,11.52-9.52,19.11-9.98
		C180.21,238.68,186.28,238.82,190.76,235.65z"/>
	<path class="st2" d="M313.17,53.57l-0.77-0.79l-0.11-1.1c-0.01-0.06-0.14-1.72,0.12-4.31c-8.65,1.61-27.14,5.77-36.66,13.23
		c-12.69,9.94-19.6,21.83-59.23,16.48c-39.63-5.35-45.36-4.54-66.44,15.26c-15.42,14.48-29.48,20.41-38.78,21.27
		c-0.89-9.54-2.05-19.07-2.56-28.48c-0.54-9.73-0.55-19.32-1.07-29.04C107.36,50.2,97.95,46,97,53.81
		c-0.87,7.14-2.44,14.18-3.07,21.35c-0.62,7.16-0.24,14.6,2.65,21.18c-4.78-2.79-7.74-8.11-8.61-13.58
		c-0.87-5.47,0.13-11.09,1.83-16.36c1.03-3.19,2.32-6.32,2.83-9.63c1.18-7.67-0.85-17.12-1.7-24.86c-0.3-2.77-1.59-6.37-4.47-6.12
		c-0.87,0.08-1.66,0.54-2.52,0.71c-3.44,0.67-5.79-3.42-5.95-6.8c-0.16-3.37,0.51-7.17-1.72-9.77c-2.75-3.22-8.01-2.51-12.16-1.28
		c-1.3,0.39-2.63,0.81-3.71,1.61c-3.17,2.34-3.17,6.82-3.31,10.66c-0.13,3.84-1.43,8.51-5.32,9.4c-2.09,0.48-4.23-0.37-6.24-1.1
		c-2.01-0.74-4.29-1.37-6.25-0.53c-4.75,2.05,3.31,24.44,3.94,29.34c0.96,7.4,1.1,14.82,0.27,22.24c-1.4,12.53-5.08,24.6-5.24,37.29
		c-0.1,8.2,1.18,14.66,4.6,21.99c4.31,9.25,4.88,17.8,6.63,27.63c0.55,3.08,2.32,6.76,5.44,6.59c2.58-0.14,4.14-2.89,4.96-5.34
		c2.01-6.02,2.6-12.51,1.72-18.8c-0.95-6.77-3.57-13.21-4.67-19.95c-1.11-6.74-0.41-14.35,4.31-19.29
		c-3.09,10.64,2.73,21.56,4.79,32.44c2.07,10.96,0.16,22.62-5.29,32.34c-2.37,4.22-5.38,8.11-7.13,12.63
		c-3.55,9.19-1.38,19.58-1.75,29.18c-0.1,2.55-3.01,28.81-2.3,29.09c1.61,0.65,3.22,1.29,4.83,1.95c3.72,1.54,7.57,3.13,11.4,4.5
		c4.34,1.55,8.66,3.16,12.97,4.76l1.13,0.42c0.46,0.17,0.95,0.34,1.46,0.51c3.29,1.13,6.69,2.29,6.92,5.44
		c0.1,1.3-0.39,3.16-3.26,4.63c-0.43,0.22-0.94,0.46-1.54,0.69c-3.25,1.28-6.85,1.91-10.99,1.91c-0.94,0-1.88-0.03-2.82-0.1
		c1.69,0.62,6.21,2.3,6.21,2.3c0.46,0.17,0.95,0.34,1.46,0.51c3.29,1.13,6.69,2.29,6.92,5.45c0.1,1.3-0.39,3.16-3.26,4.63
		c-0.43,0.22-0.94,0.45-1.54,0.69c-3.25,1.28-6.85,1.91-10.99,1.91c-1.7,0-3.4-0.11-5.1-0.3c4.48,1.61,8.95,3.27,13.41,4.93
		c0.58,0.21,1.07,0.38,1.58,0.56c3.29,1.13,6.69,2.29,6.92,5.44c0.1,1.3-0.39,3.16-3.26,4.63c-0.43,0.22-0.94,0.46-1.54,0.69
		c-3.25,1.28-6.85,1.91-10.99,1.91c-6.28,0-12.72-1.49-18.26-2.89c-3.4-0.86-6.68-1.83-9.7-3.54c-2.01,12.46-3.53,24.08-3.59,35.28
		c-0.07,13.98,0.52,30.75,1.31,49.04c0.68,0.49,1.37,0.97,2.04,1.47c3.26,2.38,6.62,4.83,10.02,7.08c3.85,2.54,7.67,5.12,11.49,7.7
		l0.99,0.67c0.4,0.27,0.85,0.55,1.3,0.84c2.93,1.87,5.96,3.81,5.44,6.92c-0.22,1.29-1.13,2.98-4.26,3.73
		c-0.46,0.11-1.02,0.21-1.65,0.3c-1.13,0.16-2.3,0.24-3.49,0.24c-3.88,0-7.69-0.81-11.41-2.07c2.74,1.83,5.46,3.67,8.19,5.51
		l0.79,0.54c0.4,0.27,0.85,0.55,1.29,0.84c2.93,1.87,5.96,3.81,5.44,6.93c-0.22,1.29-1.13,2.98-4.26,3.73
		c-0.46,0.11-1.01,0.21-1.64,0.3c-1.14,0.15-2.31,0.23-3.5,0.23c-5.13,0-10.14-1.43-14.99-3.44c0,0.08,0.01,0.17,0.01,0.25
		c0.78,0.54,1.57,1.08,2.36,1.6c3.92,2.58,7.81,5.21,11.69,7.83l0.79,0.54c0.4,0.27,0.85,0.55,1.29,0.84
		c2.93,1.88,5.96,3.81,5.44,6.93c-0.22,1.29-1.13,2.98-4.26,3.73c-0.47,0.11-1.02,0.21-1.66,0.3c-1.12,0.15-2.3,0.23-3.48,0.23
		c-3.9,0-7.72-0.84-11.46-2.11c0.27,8.39,0.48,16.84,0.61,25.25c3.52,0.4,7.31,0.87,9.66,2.5c0.01,0.01,0.42,0.29,0.42,0.29
		c0.2,0.14,0.48,0.34,0.59,0.39c0.08-0.03,0.49-0.13,0.85-0.21c0.66-0.15,1.49-0.35,2.41-0.35c0.34,0,0.68,0.03,1.02,0.08
		c1.46,0.24,2.56,0.98,3.37,1.52c0.35,0.23,0.71,0.47,0.91,0.55c0.12,0.04,0.3,0.06,0.53,0.06c0.48,0,0.97-0.07,1.46-0.14
		c0.76-0.1,1.53-0.19,2.28-0.19c0.86,0,1.63,0.11,2.36,0.33c1.54,0.47,2.7,1.39,3.63,2.14c0.51,0.41,1.21,0.96,1.51,1
		c2.19,0.26,4.61-1.84,7.16-1.58c1.68,0.17,2.85,2.1,4.69,2.31c5.17,0.6,10.52-3.38,12.99-7.62c3.24-5.54,3.42-12.35,2.69-18.73
		c-0.73-6.38-2.29-12.69-2.24-19.11c4.17,7.37,6.57,15.68,7.44,24.11c0.41,4.01,0.51,8.14,2.03,11.87c1.56,3.83,4.71,6.29,8.57,7.57
		c0.52,0.17,7.9,1.54,7.77,0.68c-1.38-9.06-2.76-18.12-4.08-27.18c-3.18-21.73-7.13-43.35-9.96-65.12
		c-1.15-8.84-1.57-17.67-2.37-26.53c-0.41-4.53-1.43-20.46-6.24-21.79c-1.22-0.34-2.51,0.19-3.61,0.81
		c-5.23,2.94-8.89,8.22-10.66,13.95c-1.78,5.73-1.81,11.87-1.02,17.82c-3.56-7.42-3.12-16.29-0.4-24.05
		c2.72-7.77,7.53-14.61,12.59-21.11c10.11-12.97,7.02-29.87,7.94-45.6c0.82-14.19,1.81-28.89,0.46-43.03
		c-0.6,1.52-1.23,3.09-2.37,4.27c-1.14,1.18-2.94,1.88-4.46,1.26c-15.18-6.1-3.19-44.19-3.06-55.02c3.27,6.41,1.72,14.09,0.63,21.21
		c-1.04,6.75-0.66,13.75,1.77,20.19c1.4,3.7,5.89,9.8,7.99,2.54c2.34-8.09,0.59-18.34,0.67-26.71c0.09-9.75,0.25-19.51,0.59-29.25
		c0.05-1.5,0-3.25-1.2-4.15c-0.53-0.4-1.19-0.56-1.83-0.74c-6.26-1.83-11.16-7.63-11.9-14.1c1.8,3.3,4.72,6.05,8.26,7.28
		c7.95,2.76,15.8-3.26,21.84-7.63c7.74-5.61,14.96-11.99,21.27-19.18c4.57-5.21,8.33-11.02,12.64-16.3
		c1.86-2.28,13.79-15.72,16.18-15.71c-6.7-0.04-13.4,0.94-19.8,2.91c14.1-8.76,30.43-11.52,46.77-11.48
		c28.02,0.08,50.35,3.05,69.38-12.56c13.97-11.46,35.32-20.83,45.7-25.01C315.11,55.47,314.09,54.51,313.17,53.57z"/>
	<path class="st2" d="M294.56,470.93c-0.16-1.01-0.37-2.03-0.62-3.05c-0.75-3.09-3.32-1.99-4.35,0.15
		c-1.23,2.55-0.96,6.79-1.61,9.62c-1.62,7.01-4.3,13.78-7.92,20c-0.88,1.51-5.78,7.61-3.38,8.92c6.43,3.48,13.48-11.8,14.97-15.64
		c1.2-3.08,2.13-6.2,2.79-9.45C295.17,477.92,295.14,474.45,294.56,470.93z"/>
	<path class="st2" d="M281.06,427.82c-0.1-0.32-0.21-0.64-0.31-0.96c-0.2-0.58-0.42-1.19-0.87-1.61c-0.45-0.42-1.2-0.59-1.69-0.21
		c-0.35,0.28-0.47,0.74-0.58,1.18c-1.53,6.59-2.49,13.16-3.89,19.78c-0.75,3.52-1.65,7.05-1.92,10.65
		c-0.13,1.74-0.96,5.01,1.26,5.92c2.26,0.93,4.76-3.23,5.82-4.83c2.81-4.26,4.74-9.6,4.65-14.75
		C283.45,437.86,282.61,432.73,281.06,427.82z"/>
	<path class="st2" d="M412.98,302.32c-0.33-0.87-0.72-1.73-1.2-2.56c-0.29-0.51-0.69-1.05-1.28-1.09c-0.99-0.07-1.41,1.23-1.49,2.22
		c-0.77,9.11-1.59,17.65-4.73,26.33c2.3,2.67,7.57-6.66,8.12-8.23C414.25,313.67,414.99,307.69,412.98,302.32z"/>
	<path class="st2" d="M397.65,344.46c-0.06-0.65-0.16-1.3-0.28-1.96c-0.07-0.36-0.16-0.73-0.41-1c-0.71-0.75-2.02-0.05-2.5,0.86
		c-1.05,1.96-1.76,4.21-2.54,6.28c-0.64,1.7-1.28,3.4-2.05,5.04c-1.64,3.49-3.34,6.96-5.04,10.43c-0.33,0.68-0.68,1.44-0.48,2.18
		c0.46,1.75,3.11,0.53,3.88-0.27C393.8,360.18,398.43,352.74,397.65,344.46z"/>
	<path class="st2" d="M385.19,316.06c-0.75-1.57-1.78-2.13-3.04,0.92c-2.33,5.66-0.94,12.48-2.16,18.4
		c-0.33,1.58-1.69,5.03,0.68,5.03c1.42,0,2.74-2.5,3.29-3.49c2.9-5.19,3.38-10.55,2.48-16.27
		C386.25,319.44,385.82,317.39,385.19,316.06z"/>
	<path class="st2" d="M416.27,262.28c-0.32-1.02-0.84-1.82-1.67-2.2c-1.79-0.81-5.42,23.24-5.7,24.33c-0.19,0.73-0.38,1.57,0.03,2.2
		c0.79,1.22,3.12-0.17,3.58-1.02c2.39-4.42,4.3-8.72,4.07-13.74C416.49,269.88,417.18,265.18,416.27,262.28z"/>
	<path class="st2" d="M246.32,537.86c1.82-8.1-9.6-0.06-11.04,1.3c-1.86,1.76-3.72,3.51-5.72,5.11c-2.86,2.29-5.83,4.5-8.45,7.06
		c-1.35,1.32-8.24,10.12-1.27,7.55c5.25-1.93,10.45-4.35,14.97-7.69C239.37,547.84,245.01,543.7,246.32,537.86z"/>
	<path class="st2" d="M200.85,545.47c0.52-1.04,0.89-2.1,1.07-3.2c0.06-0.38,0.1-0.8-0.11-1.13c-0.5-0.77-1.68-0.28-2.43,0.25
		c-6.09,4.36-13.01,6.77-19.87,9.57c-1.75,0.71-15.78,7.29-9.24,8.61C180.91,561.74,195.83,555.41,200.85,545.47z"/>
	<path class="st2" d="M59.6,542.07c4.45-0.53,1.66-3.4-0.65-4.44c-5.17-2.34-9.49-6.18-13.73-9.96
		c-2.19-1.96-13.41-14.77-13.57-5.85c-0.08,4.43,8.13,11.55,11.52,13.85C47.88,538.85,53.66,542.79,59.6,542.07z"/>
	<path class="st2" d="M42.59,511.9c0.63,0.17,1.22,0.2,1.75,0.04c4.87-1.47-2.85-7.48-4.03-8.6c-3.51-3.35-6.14-7.73-8.1-11.99
		c-0.69-1.5-1.4-3.06-2.62-4.17c-0.6-0.55-1.52-0.97-2.21-0.53c-3.25,2.1,3.2,13.09,4.6,15.32
		C33.39,504.22,38.69,510.85,42.59,511.9z"/>
	<path class="st2" d="M253.28,495.9c0.4-2.21-1.86-3.62-3.75-2.65c-1.95,1-3.26,2.47-4.78,4.03c-1.39,1.43-2.77,2.85-4.27,4.17
		c-3.14,2.75-6.58,5.1-9.76,7.82c-0.45,0.38-0.92,0.8-1.1,1.37c-1.89,6.09,14.33-3.31,15.16-3.98
		C248.22,503.88,252.46,500.48,253.28,495.9z"/>
	<path class="st2" d="M134.99,346.65c0.41-0.04,0.83-0.13,1.25-0.27c0.7-0.23,1.31-0.89,1.24-1.62c-0.13-1.33-3.63-3.66-4.67-4.38
		c-4.11-2.83-8.42-5.24-12.26-8.52c-0.81-0.69-2.15-1.35-2.8-0.51c-0.48,0.62-0.08,1.52,0.37,2.16c1.96,2.82,4.82,5.85,7.39,8.13
		C128.04,343.88,131.35,347.02,134.99,346.65z"/>
	<path class="st2" d="M155.88,369.83c1.78,0.02,2.58-1.92,1.57-3.27c-1.04-1.39-2.35-2.22-3.77-3.19c-1.3-0.89-2.59-1.79-3.81-2.78
		c-2.17-1.77-3.67-4.35-5.77-6.23c-3.02-2.71-3.75-1.02-2.57,2.14C143.43,361.55,149.95,369.77,155.88,369.83z"/>
	<path class="st2" d="M155.53,351.16c2.29-0.18,1.28-4.22-0.85-6.48c-1.08-1.14-2.16-2.29-3.14-3.52
		c-2.72-3.39-5.24-6.94-7.48-10.66c-0.13-0.22-0.3-0.46-0.56-0.47c-0.31-0.01-0.49,0.33-0.59,0.63c-1.48,4.64,1.7,10.1,4.38,13.72
		c1.49,2.02,3.12,4.5,5.34,5.79C153.91,350.94,154.86,351.22,155.53,351.16z"/>
	<path class="st2" d="M308.07,421.96c-0.45-3.09-1.08-6.13-1.78-9.01c-0.36-1.48-0.8-3.01-1.81-4.16c-0.31-0.36-0.72-0.68-1.19-0.69
		c-1.02-0.01-1.42,1.31-1.5,2.32c-0.3,3.65-0.81,7.11-0.88,10.79c-0.06,3.08-0.21,6.18-0.42,9.26c-0.44,6.43-0.85,12.74-0.9,19.19
		c-0.01,0.81,0.04,1.75,0.69,2.24c0.75,0.57,1.87,0.18,2.54-0.48c3.64-3.57,4.55-7.75,5.4-12.69
		C309.13,433.37,308.89,427.58,308.07,421.96z"/>
</g>
<g id="_x32_">
	<path class="st3" d="M242.37,250.83c-2.69-2.27-6.16-2.69-9.55-2.97c-0.72-0.06-1.41,0.68-1.38,1.38c0.06,1.39,1.74,1.63,2.12,2.75
		c0.41,1.24-0.97,2.29-1.73,3.14c-2.12,2.36-4.55,4.41-7.27,6.04c-2.58,1.55-8.74,4.24-10.27-0.06c-0.33-0.94-3.12-8.45-2.68-8.75
		c2.15-1.49,3.64-4.87,4.42-6.14c1.51-2.48,5.32-5.93,1.4-8.34c-2.85-1.76-10.04-1.06-13.56-0.3c-3.53,0.77-7.76,2.1-7.63,5.26
		c0.14,3.26,7.47,7.39,10.61,9.32c0.62,0.38,1.3,0.74,2.08,0.87c0.23,0.04,2.14,6.59,2.38,7.28c0.4,1.15,1.03,4.08-0.1,5.05
		c-0.93,0.8-3.68,0.31-4.84,0.24c-4.12-0.27-8.17-1.37-11.85-3.23c-1.04-0.53-2.16,0.37-2.09,1.47c0.1,1.77,4.02,3.84,5.32,4.73
		c2.63,1.81,5.4,3.42,8.35,4.66c5.63,2.37,11.88,3.27,17.81,1.5c4.47-1.34,8.43-4.11,10.84-8.15c1.46-2.44,2.32-5.18,2.88-7.95
		c0.3-1.48-0.1-3.85,0.96-5.07c0.78-0.9,1.29-0.38,2.33-0.39C241.97,253.15,243.76,252,242.37,250.83z"/>
	<path class="st3" d="M186.9,224.07c-0.48-1.25-1.2-2.5-1.67-3.12c-1.19-1.59-3.06-2.58-4.87-3.06c-3.05-0.81-6.41-0.62-9.37,0.46
		c-2.83,1.03-5.44,3.43-6.99,5.99c-1.64,2.72-2.23,5.98-1.07,8.99c1.13,2.92,3.39,1.78,4.24-0.74c1.12-3.3,4.2-5.98,7.52-6.92
		c2.65-0.75,5.3-0.3,7.72,0.92c1.49,0.75,4.27,2.72,4.94,0.16C187.53,226.08,187.29,225.08,186.9,224.07z"/>
	<path class="st3" d="M253.17,214.25c-0.27-1.45-0.79-2.95-1.17-3.72c-0.96-1.96-2.79-3.42-4.65-4.31c-3.14-1.5-6.81-1.97-10.23-1.4
		c-3.28,0.54-6.59,2.6-8.78,5.05c-2.33,2.61-3.63,6.02-2.99,9.51c0.62,3.39,3.3,2.62,4.74,0.06c1.88-3.35,5.76-5.62,9.55-5.95
		c3.02-0.27,5.79,0.75,8.17,2.56c1.46,1.11,4.07,3.81,5.31,1.18C253.44,216.55,253.39,215.42,253.17,214.25z"/>
</g>
<g id="_x31_">
	<g>
		<path class="st4" d="M261.93,0c1.08,15.53,22.08,25.89,15.62,45.04c-2.39,7.09-7.45,12.97-13.15,17.67
			c-1.61,1.32-15.19,10.1-16.52,8.84c-0.25-0.24-0.31-0.62-0.35-0.96c-1.16-10.27,1.84-20.51,4.81-30.42
			c-5.74,9.58-10.34,19.85-13.65,30.51C227.38,62.99,223.66,50.8,228,37.79C237.16,10.35,261.93,0,261.93,0z"/>
		<path class="st4" d="M384.91,20.31c0,0-7,1.04-11.31,9.32c-4.31,8.28-9.16,25.89-22.62,32.1c-11.84,5.46-21.42-0.52-30.6-7.48
			c6.89-9.71,16.86-17.2,28.11-21.11c-12.62,1.72-23.99,8.42-34.3,15.9c5.44-13.92,9.72-23.75,24.94-29.24
			C364.98,10.47,384.91,20.31,384.91,20.31z"/>
		<path class="st4" d="M341.29,91.75c0,0-9.2-1.08-16.16,5.18c-5.67,5.21-15.7,6.41-23.02,6.09c-12.75-0.56-17.06-6-23.51-15.87
			c-0.51-0.78-0.98-1.94-0.25-2.53c0.28-0.23,0.67-0.27,1.03-0.31c9.17-0.91,18.4-1.31,27.62-1.18c-9.34-2.04-18.8-3.54-28.32-4.48
			c7.32-7.19,21.16-8.02,30.82-7.78C329.98,71.39,339.85,86.75,341.29,91.75z"/>
	</g>
</g>
</svg>
